<?xml version="1.0" encoding="utf-8"?>
<!-- Generator: Adobe Illustrator 25.2.1, SVG Export Plug-In . SVG Version: 6.00 Build 0)  -->
<svg version="1.1" id="Capa_1" xmlns="http://www.w3.org/2000/svg" xmlns:xlink="http://www.w3.org/1999/xlink" x="0px" y="0px"
	 viewBox="0 0 512 512" style="enable-background:new 0 0 512 512;" xml:space="preserve">
<style type="text/css">
	.st0{fill:#FECA57;}
	.st1{fill:#15BA8B;}
	.st2{fill:#54A0FF;}
	.st3{fill:#11AA7B;}
	.st4{fill:#338DEF;}
	.st5{fill:#FF6B6B;}
</style>
<path class="st0" d="M437.1,173C388.9,124.9,324.1,98,256,98v69.6c49.9,0,97,19.8,131.8,54.6L437.1,173z"/>
<path class="st1" d="M74.9,173l49.2,49.2c35-35,82.2-54.6,131.8-54.6V98C191.5,98,128.8,121.1,74.9,173z"/>
<path class="st1" d="M74.9,173l49.2,49.2c35-35,82.2-54.6,131.8-54.6V98C191.5,98,128.8,121.1,74.9,173z"/>
<path class="st2" d="M0,348.6c-0.1,2.6,2,4.7,4.6,4.7h60.4c2.5,0,4.5-2,4.6-4.4c1.3-46.1,19.6-91.7,54.5-126.6L74.9,173
	C28.6,219.3,1.4,281.7,0,348.6z"/>
<path class="st3" d="M106.7,171c43.6-42.1,93-65.4,144.5-73c-62.8,1.1-123.7,24.3-176.2,74.9l15.7,15.7
	C95.7,182.6,101,176.7,106.7,171z"/>
<path class="st4" d="M35.6,353.3c-2.6,0-4.7-2.2-4.7-4.8c1.3-59.4,22.7-115.4,59.7-159.9L74.9,173C28.6,219.3,1.4,281.7,0,348.6
	c-0.1,2.6,2,4.7,4.6,4.7h60.4H35.6z"/>
<path class="st5" d="M437.1,173l-49.2,49.2c32.7,32.7,53.2,77.4,54.5,126.6c0.1,2.5,2.1,4.4,4.6,4.4h60.4c2.6,0,4.7-2.1,4.6-4.7
	C510.6,283.4,484.4,220.4,437.1,173z"/>
</svg>
