<?xml version="1.0" encoding="utf-8"?>
<!-- Generator: Adobe Illustrator 25.2.1, SVG Export Plug-In . SVG Version: 6.00 Build 0)  -->
<svg version="1.1" id="Capa_1" xmlns="http://www.w3.org/2000/svg" xmlns:xlink="http://www.w3.org/1999/xlink" x="0px" y="0px"
	 viewBox="0 0 147 223.1" style="enable-background:new 0 0 147 223.1;" xml:space="preserve">
<style type="text/css">
	.st0{fill:#FF6B6B;}
	.st1{fill:#EE5253;}
	.st2{fill:#D83941;}
</style>
<path class="st0" d="M138.3,115.3L78.9,3.5c-2.5-4.6-9.1-4.6-11.5,0L8.6,115.7c-25.7,48.9,9.9,107.6,65.2,107.4
	C129,223,164.3,164.1,138.3,115.3z"/>
<path class="st1" d="M95.3,201.3c-55.3,0-90.7-58.8-64.9-107.6L78.6,2.5c-2.8-3.6-8.6-3.2-10.9,1l-59.1,112
	c-25.8,48.9,9.6,107.6,64.9,107.6c26.7,0,48.8-13.7,61.5-33.4C123.8,196.9,110.3,201.3,95.3,201.3z"/>
<path class="st1" d="M73.5,119.6c-17.4,0-31.5,14.1-31.5,31.5c0,17.4,14.1,31.5,31.5,31.5c17.4,0,31.5-14.1,31.5-31.5
	C105,133.7,90.9,119.6,73.5,119.6z"/>
<path class="st2" d="M65.3,120.6C51.9,124.2,42,136.5,42,151.1c0,17.4,14.1,31.5,31.5,31.5c14.6,0,26.8-9.9,30.4-23.3
	C80.4,165.5,59.1,143.9,65.3,120.6z"/>
</svg>
