<?xml version="1.0" encoding="utf-8"?>
<!-- Generator: Adobe Illustrator 25.2.1, SVG Export Plug-In . SVG Version: 6.00 Build 0)  -->
<svg version="1.1" id="Capa_1" xmlns="http://www.w3.org/2000/svg" xmlns:xlink="http://www.w3.org/1999/xlink" x="0px" y="0px"
	 viewBox="0 0 279 279" style="enable-background:new 0 0 279 279;" xml:space="preserve">
<style type="text/css">
	.st0{fill:#A30404;}
	.st1{fill:#AD0000;}
	.st2{fill:#FFFFFF;}
	.st3{font-family:'MyriadPro-Regular';}
	.st4{font-size:109.7871px;}
</style>
<g>
	<g>
		<path class="st0" d="M86.4,58.9L86.4,58.9h0.3c16.5,0,29.5-12.8,29.7-29.1c0.1-8-3-15.5-8.6-21.1C102.3,3.1,94.8,0,86.9,0h0
			c-8,0-15.5,3.1-21.1,8.8c-5.6,5.6-8.6,13-8.6,20.9C57.3,45.6,70.4,58.8,86.4,58.9z M86.9,14.3C86.9,14.3,86.9,14.3,86.9,14.3
			c8.5,0,15.2,6.8,15.2,15.3c-0.1,8.5-6.7,14.9-15.3,14.9c-0.1,0-0.1,0-0.2,0c-8.2-0.1-14.9-6.8-15-15
			C71.5,21.2,78.4,14.3,86.9,14.3z"/>
		<path class="st1" d="M171.6,129c-10.9,0-21.2,2.4-30.5,6.6c0-13.2,0-26.3,0-39.5C141,78,128.7,65.8,110.5,65.7
			c-8.3,0-16.6-0.1-24.9-0.1c-7.3,0-14.6,0-21.8,0c-19,0.1-31.3,12.4-31.4,31.3c0,11.4,0,22.7,0,34.1l0,12.5c0,1.5,0,3.1,0,4.6
			c0,4-0.1,8.1,0.1,12.4c0.5,11.1,8.5,19.7,19.1,21c0,20,0,40,0,60c0,15,9.6,25.7,23.3,26l0.6,0c4,0,8.1-0.9,11.7-2.9
			c1.1,0.5,2.2,0.9,3.3,1.2c2.3,0.6,4.9,1,7.5,1c4.1,0,10-0.8,14.9-4.7c2.1-1.7,3.8-3.7,5.1-5.9c13.6,14,32.6,22.7,53.7,22.7
			c41.3,0,75-33.6,75-75C246.6,162.7,213,129,171.6,129z M122.1,238.9C115.1,229,111,217,111,204c0-22.3,12.1-41.8,30.1-52.3
			c9-5.3,19.4-8.3,30.5-8.3c33.4,0,60.6,27.2,60.6,60.6c0,33.4-27.2,60.6-60.6,60.6C151.2,264.6,133.1,254.4,122.1,238.9z
			 M104,250.9c-1.4,1.1-3.7,1.6-6,1.6c-1.3,0-2.7-0.2-3.8-0.5c-4.2-1.1-5.4-5.2-5.4-9.5c0-22.9,0-45.7,0-68.6c0-2,0-4,0-6.1
			c-0.6-0.2-1.2-0.5-1.8-0.7c-0.7,1.4-2,2.8-2,4.1c-0.2,11.4-0.1,22.9-0.1,34.3c0,11.9,0,23.9,0,35.8c0,7.6-3.4,11.8-9.4,11.8
			c-0.1,0-0.2,0-0.3,0c-5.8-0.1-9.2-4.4-9.2-11.7c0-41.5,0-82.9,0-124.4c0-1,0.3-2.1-0.1-3.1c-0.5-1.3-1.4-2.5-2.2-3.7
			c-0.6,1.2-1.6,2.4-1.6,3.6c-0.1,14-0.1,28-0.1,42c0,1.4,0.1,2.7,0,4.1c-0.4,4.4-3.4,7.3-7.6,7.3c0,0,0,0,0,0
			c-4.2,0-7.4-2.9-7.6-7.4c-0.2-5.5-0.1-10.9-0.1-16.4c0-15.5,0-31.1,0-46.6c0-11.1,5.9-17,17.1-17c7.3,0,14.5,0,21.8,0
			c8.3,0,16.5,0,24.8,0.1c10.4,0.1,16.3,5.9,16.3,16.1c0.1,16,0,31.9,0,47.9c-5.7,4.3-10.8,9.4-15.1,15.1c0-0.4-0.1-0.8-0.1-1.3
			c-0.1-13,0-25.9,0-38.9c0-1.9,0.2-3.8-0.1-5.6c-0.2-1-1.2-1.9-1.9-2.9c-0.6,1-1.3,2-1.7,3.1c-0.2,0.6,0,1.3,0,2
			c0,16.3,0,32.7,0,49c-7.1,11.5-11.3,24.9-11.3,39.4c0,14.2,4.1,27.5,11,38.9C107.3,245.9,106,249.3,104,250.9z"/>
	</g>
</g>
<text transform="matrix(1 0 0 1 144.6304 235.7662)" class="st2 st3 st4">2</text>
</svg>
